<svg xmlns="http://www.w3.org/2000/svg" width="460" height="396" viewBox="0 0 460 396" role="img" aria-label="Графік функції">
<rect width="460" height="396" fill="#0f0f13"/>
<line x1="38.63" y1="368.0" x2="38.63" y2="28.0" stroke="#2b2b35" stroke-width="1"/>
<line x1="91.79" y1="368.0" x2="91.79" y2="28.0" stroke="#2b2b35" stroke-width="1"/>
<line x1="144.95" y1="368.0" x2="144.95" y2="28.0" stroke="#2b2b35" stroke-width="1"/>
<line x1="198.11" y1="368.0" x2="198.11" y2="28.0" stroke="#2b2b35" stroke-width="1"/>
<line x1="251.26" y1="368.0" x2="251.26" y2="28.0" stroke="#2b2b35" stroke-width="1"/>
<line x1="304.42" y1="368.0" x2="304.42" y2="28.0" stroke="#2b2b35" stroke-width="1"/>
<line x1="357.58" y1="368.0" x2="357.58" y2="28.0" stroke="#2b2b35" stroke-width="1"/>
<line x1="410.74" y1="368.0" x2="410.74" y2="28.0" stroke="#2b2b35" stroke-width="1"/>
<line x1="28.0" y1="357.38" x2="432.0" y2="357.38" stroke="#2b2b35" stroke-width="1"/>
<line x1="28.0" y1="304.25" x2="432.0" y2="304.25" stroke="#2b2b35" stroke-width="1"/>
<line x1="28.0" y1="251.12" x2="432.0" y2="251.12" stroke="#2b2b35" stroke-width="1"/>
<line x1="28.0" y1="198.0" x2="432.0" y2="198.0" stroke="#2b2b35" stroke-width="1"/>
<line x1="28.0" y1="144.88" x2="432.0" y2="144.88" stroke="#2b2b35" stroke-width="1"/>
<line x1="28.0" y1="91.75" x2="432.0" y2="91.75" stroke="#2b2b35" stroke-width="1"/>
<line x1="28.0" y1="38.62" x2="432.0" y2="38.62" stroke="#2b2b35" stroke-width="1"/>
<line x1="28.0" y1="198.0" x2="432.0" y2="198.0" stroke="#9a9aab" stroke-width="1.5"/>
<line x1="91.79" y1="368.0" x2="91.79" y2="28.0" stroke="#9a9aab" stroke-width="1.5"/>
<polygon points="432.0,198.0 422.0,193.0 422.0,203.0" fill="#9a9aab"/>
<polygon points="91.79,28.0 86.79,38.0 96.79,38.0" fill="#9a9aab"/>
<text x="428.0" y="222.0" font-size="20" fill="#9a9aab" text-anchor="end" font-family="'Times New Roman', 'Noto Serif', serif" font-style="italic">x</text>
<text x="101.79" y="42.0" font-size="20" fill="#9a9aab" text-anchor="start" font-family="'Times New Roman', 'Noto Serif', serif" font-style="italic">y</text>
<text x="85.79" y="216.0" font-size="16" fill="#9a9aab" text-anchor="end" font-family="'Times New Roman', 'Noto Serif', serif">0</text>
<line x1="144.95" y1="200.72" x2="144.95" y2="195.28" stroke="#9a9aab" stroke-width="1.5"/>
<text x="144.95" y="220.0" font-size="16" fill="#9a9aab" text-anchor="middle" font-family="ui-sans-serif, system-ui, sans-serif">1</text>
<line x1="198.11" y1="200.72" x2="198.11" y2="195.28" stroke="#9a9aab" stroke-width="1.5"/>
<text x="198.11" y="220.0" font-size="16" fill="#9a9aab" text-anchor="middle" font-family="ui-sans-serif, system-ui, sans-serif">2</text>
<line x1="304.42" y1="200.72" x2="304.42" y2="195.28" stroke="#9a9aab" stroke-width="1.5"/>
<text x="304.42" y="220.0" font-size="16" fill="#9a9aab" text-anchor="middle" font-family="ui-sans-serif, system-ui, sans-serif">4</text>
<line x1="88.56" y1="304.25" x2="95.02" y2="304.25" stroke="#9a9aab" stroke-width="1.5"/>
<text x="83.79" y="310.25" font-size="16" fill="#9a9aab" text-anchor="end" font-family="ui-sans-serif, system-ui, sans-serif">-2</text>
<line x1="88.56" y1="251.12" x2="95.02" y2="251.12" stroke="#9a9aab" stroke-width="1.5"/>
<text x="83.79" y="257.12" font-size="16" fill="#9a9aab" text-anchor="end" font-family="ui-sans-serif, system-ui, sans-serif">-1</text>
<line x1="88.56" y1="144.88" x2="95.02" y2="144.88" stroke="#9a9aab" stroke-width="1.5"/>
<text x="83.79" y="150.88" font-size="16" fill="#9a9aab" text-anchor="end" font-family="ui-sans-serif, system-ui, sans-serif">1</text>
<line x1="88.56" y1="91.75" x2="95.02" y2="91.75" stroke="#9a9aab" stroke-width="1.5"/>
<text x="83.79" y="97.75" font-size="16" fill="#9a9aab" text-anchor="end" font-family="ui-sans-serif, system-ui, sans-serif">2</text>
<polyline points="98.17,360.5 99.52,345.82 100.86,333.51 102.21,322.9 103.56,313.58 104.9,305.28 106.25,297.79 107.6,290.96 108.94,284.69 110.29,278.9 111.64,273.52 112.98,268.48 114.33,263.76 115.68,259.31 117.02,255.11 118.37,251.12 119.72,247.34 121.06,243.73 122.41,240.28 123.76,236.98 125.1,233.82 126.45,230.78 127.8,227.86 129.14,225.05 130.49,222.33 131.84,219.71 133.18,217.17 134.53,214.72 135.88,212.34 137.22,210.04 138.57,207.8 139.92,205.62 141.26,203.51 142.61,201.45 143.96,199.44 145.3,197.49 146.65,195.59 148.0,193.73 149.34,191.91 150.69,190.14 152.04,188.41 153.38,186.71 154.73,185.06 156.08,183.43 157.42,181.84 158.77,180.29 160.12,178.76 161.46,177.27 162.81,175.8 164.16,174.36 165.5,172.95 166.85,171.56 168.2,170.19 169.54,168.86 170.89,167.54 172.24,166.25 173.58,164.97 174.93,163.72 176.28,162.49 177.62,161.28 178.97,160.08 180.32,158.91 181.66,157.75 183.01,156.61 184.36,155.49 185.7,154.38 187.05,153.29 188.4,152.22 189.74,151.15 191.09,150.11 192.44,149.08 193.78,148.06 195.13,147.05 196.48,146.06 197.82,145.08 199.17,144.11 200.52,143.16 201.86,142.21 203.21,141.28 204.56,140.36 205.9,139.45 207.25,138.55 208.6,137.66 209.94,136.78 211.29,135.92 212.64,135.06 213.98,134.21 215.33,133.37 216.68,132.54 218.02,131.71 219.37,130.9 220.72,130.1 222.06,129.3 223.41,128.51 224.76,127.73 226.1,126.96 227.45,126.19 228.8,125.44 230.14,124.69 231.49,123.95 232.84,123.21 234.18,122.48 235.53,121.76 236.88,121.05 238.22,120.34 239.57,119.64 240.92,118.94 242.26,118.25 243.61,117.57 244.96,116.89 246.3,116.22 247.65,115.56 249.0,114.9 250.34,114.24 251.69,113.59 253.04,112.95 254.38,112.31 255.73,111.68 257.08,111.06 258.42,110.43 259.77,109.82 261.12,109.2 262.46,108.6 263.81,108.0 265.16,107.4 266.5,106.8 267.85,106.22 269.2,105.63 270.54,105.05 271.89,104.48 273.24,103.91 274.58,103.34 275.93,102.78 277.28,102.22 278.62,101.66 279.97,101.11 281.32,100.57 282.66,100.02 284.01,99.49 285.36,98.95 286.7,98.42 288.05,97.89 289.4,97.37 290.74,96.85 292.09,96.33 293.44,95.82 294.78,95.31 296.13,94.8 297.48,94.3 298.82,93.8 300.17,93.3 301.52,92.8 302.86,92.31 304.21,91.83 305.56,91.34 306.9,90.86 308.25,90.38 309.6,89.91 310.94,89.43 312.29,88.97 313.64,88.5 314.98,88.03 316.33,87.57 317.68,87.12 319.02,86.66 320.37,86.21 321.72,85.76 323.06,85.31 324.41,84.86 325.76,84.42 327.1,83.98 328.45,83.54 329.8,83.11 331.14,82.68 332.49,82.25 333.84,81.82 335.18,81.39 336.53,80.97 337.88,80.55 339.22,80.13 340.57,79.72 341.92,79.3 343.26,78.89 344.61,78.48 345.96,78.07 347.3,77.67 348.65,77.27 350.0,76.87 351.34,76.47 352.69,76.07 354.04,75.68 355.38,75.28 356.73,74.89 358.08,74.5 359.42,74.12 360.77,73.73 362.12,73.35 363.46,72.97 364.81,72.59 366.16,72.21 367.5,71.84 368.85,71.46 370.2,71.09 371.54,70.72 372.89,70.36 374.24,69.99 375.58,69.62 376.93,69.26 378.28,68.9 379.62,68.54 380.97,68.18 382.32,67.83 383.66,67.47 385.01,67.12 386.36,66.77 387.7,66.42 389.05,66.07 390.4,65.72 391.74,65.38 393.09,65.04 394.44,64.69 395.78,64.35 397.13,64.02 398.48,63.68 399.82,63.34 401.17,63.01 402.52,62.68 403.86,62.34 405.21,62.01 406.56,61.69 407.9,61.36 409.25,61.03 410.6,60.71 411.94,60.38 413.29,60.06 414.64,59.74 415.98,59.42 417.33,59.11 418.68,58.79 420.02,58.47 421.37,58.16" fill="none" stroke="#8b5cf6" stroke-width="3" stroke-linejoin="round" stroke-linecap="round"/>
<circle cx="144.95" cy="198.0" r="5" fill="#8b5cf6"/>
<circle cx="198.11" cy="144.88" r="5" fill="#8b5cf6"/>
<circle cx="304.42" cy="91.75" r="5" fill="#8b5cf6"/>
</svg>
